<svg xmlns="http://www.w3.org/2000/svg" style="display: none;">
    <symbol id="icon-house" viewBox="0 0 24 24" fill="none" stroke="currentColor" stroke-width="1.6" stroke-linecap="round" stroke-linejoin="round">
        <path d="M3 11.5L12 4l9 7.5" />
        <path d="M5.5 10V20h13V10" />
        <path d="M9.5 20V14h5v6" />
    </symbol>
    <symbol id="icon-grid" viewBox="0 0 24 24" fill="none" stroke="currentColor" stroke-width="1.6" stroke-linecap="round" stroke-linejoin="round">
        <rect x="4" y="4" width="6" height="6" rx="1.5" />
        <rect x="14" y="4" width="6" height="6" rx="1.5" />
        <rect x="4" y="14" width="6" height="6" rx="1.5" />
        <rect x="14" y="14" width="6" height="6" rx="1.5" />
    </symbol>
    <symbol id="icon-ledger" viewBox="0 0 24 24" fill="none" stroke="currentColor" stroke-width="1.6" stroke-linecap="round" stroke-linejoin="round">
        <path d="M6 4h9.5a2.5 2.5 0 012.5 2.5V20H6z" />
        <path d="M6 4h-.5A1.5 1.5 0 004 5.5V18a2 2 0 002 2" />
        <path d="M10 8h6" />
        <path d="M10 12h6" />
        <path d="M10 16h6" />
    </symbol>
    <symbol id="icon-bubble" viewBox="0 0 24 24" fill="none" stroke="currentColor" stroke-width="1.6" stroke-linecap="round" stroke-linejoin="round">
        <path d="M6.5 17.5L4 20l.5-3.5A8 8 0 116.5 17.5z" />
        <path d="M8 12h.01" />
        <path d="M12 12h.01" />
        <path d="M16 12h.01" />
    </symbol>
    <symbol id="icon-tag" viewBox="0 0 24 24" fill="none" stroke="currentColor" stroke-width="1.6" stroke-linecap="round" stroke-linejoin="round">
        <path d="M20 13.5L10.5 4H5a1 1 0 00-1 1v5.5L13.5 20a1 1 0 001.41 0L20 14.91a1 1 0 000-1.41z" />
        <circle cx="8.5" cy="8.5" r="1.2" />
    </symbol>
    <symbol id="icon-bag" viewBox="0 0 24 24" fill="none" stroke="currentColor" stroke-width="1.6" stroke-linecap="round" stroke-linejoin="round">
        <path d="M6 7h12l1 13H5z" />
        <path d="M9 7a3 3 0 116 0" />
    </symbol>
    <symbol id="icon-cubes" viewBox="0 0 24 24" fill="none" stroke="currentColor" stroke-width="1.6" stroke-linecap="round" stroke-linejoin="round">
        <path d="M12 3l8 4.5v9L12 21l-8-4.5v-9z" />
        <path d="M12 12l8-4.5" />
        <path d="M12 12l-8-4.5" />
        <path d="M12 12v9" />
    </symbol>
    <symbol id="icon-clipboard" viewBox="0 0 24 24" fill="none" stroke="currentColor" stroke-width="1.6" stroke-linecap="round" stroke-linejoin="round">
        <rect x="6.5" y="4" width="11" height="16" rx="2.2" />
        <path d="M9.5 4V3.5A1.5 1.5 0 0111 2h2a1.5 1.5 0 011.5 1.5V4" />
        <path d="M9 9h6" />
        <path d="M9 13h6" />
    </symbol>
    <symbol id="icon-people" viewBox="0 0 24 24" fill="none" stroke="currentColor" stroke-width="1.6" stroke-linecap="round" stroke-linejoin="round">
        <path d="M16.5 11.5a3.5 3.5 0 10-3.5-3.5" />
        <path d="M10 10a3.5 3.5 0 11-3.5-3.5" />
        <path d="M3 19.4A6 6 0 019 15h0a6 6 0 016 4.4" />
        <path d="M14 18.5a4.5 4.5 0 018 2.5" />
    </symbol>
    <symbol id="icon-banknote" viewBox="0 0 24 24" fill="none" stroke="currentColor" stroke-width="1.6" stroke-linecap="round" stroke-linejoin="round">
        <rect x="3" y="7" width="18" height="10" rx="2.5" />
        <circle cx="12" cy="12" r="2.5" />
        <path d="M5 10h0" />
        <path d="M19 14h0" />
    </symbol>
    <symbol id="icon-lifebuoy" viewBox="0 0 24 24" fill="none" stroke="currentColor" stroke-width="1.6" stroke-linecap="round" stroke-linejoin="round">
        <circle cx="12" cy="12" r="9" />
        <circle cx="12" cy="12" r="3.5" />
        <path d="M4.5 4.5l3.3 3.3" />
        <path d="M19.5 4.5l-3.3 3.3" />
        <path d="M4.5 19.5l3.3-3.3" />
        <path d="M19.5 19.5l-3.3-3.3" />
    </symbol>
    <symbol id="icon-shield" viewBox="0 0 24 24" fill="none" stroke="currentColor" stroke-width="1.6" stroke-linecap="round" stroke-linejoin="round">
        <path d="M12 21s-7-3.5-7-10V6l7-3 7 3v5c0 6.5-7 10-7 10z" />
        <path d="M9.5 11.5l2.5 2.5 3.5-3.5" />
    </symbol>
    <symbol id="icon-cube" viewBox="0 0 24 24" fill="none" stroke="currentColor" stroke-width="1.6" stroke-linecap="round" stroke-linejoin="round">
        <path d="M12 3l7 4v8l-7 4-7-4V7z" />
        <path d="M12 3v8" />
        <path d="M19 7l-7 4-7-4" />
    </symbol>
    <symbol id="icon-gear" viewBox="0 0 24 24" fill="none" stroke="currentColor" stroke-width="1.6" stroke-linecap="round" stroke-linejoin="round">
        <circle cx="12" cy="12" r="2.5" />
        <path d="M19.4 12.94a7.6 7.6 0 000-1.88l2-1.47-1.9-3.28-2.34.6a7.55 7.55 0 00-1.62-.94L15 3h-6l-.54 2.37c-.57.24-1.12.54-1.62.9l-2.34-.58-1.9 3.28 2 1.47a7.6 7.6 0 000 1.88l-2 1.47 1.9 3.28 2.34-.6c.5.37 1.05.68 1.62.94L9 21h6l.54-2.37c.57-.24 1.12-.54 1.62-.9l2.34.58 1.9-3.28z" />
    </symbol>
    <symbol id="icon-globe" viewBox="0 0 24 24" fill="none" stroke="currentColor" stroke-width="1.6" stroke-linecap="round" stroke-linejoin="round">
        <circle cx="12" cy="12" r="9" />
        <path d="M3 12h18" />
        <path d="M12 3c2.5 3 3.75 6.5 3.75 9s-1.25 6-3.75 9c-2.5-3-3.75-6.5-3.75-9s1.25-6 3.75-9z" />
    </symbol>
    <symbol id="icon-cart" viewBox="0 0 24 24" fill="none" stroke="currentColor" stroke-width="1.6" stroke-linecap="round" stroke-linejoin="round">
        <path d="M3 4h2l2.2 10.5a1.5 1.5 0 001.47 1.2H18.5a1.5 1.5 0 001.47-1.2L21 8H6" />
        <circle cx="9" cy="19" r="1.5" />
        <circle cx="18" cy="19" r="1.5" />
    </symbol>
    <symbol id="icon-chart" viewBox="0 0 24 24" fill="none" stroke="currentColor" stroke-width="1.6" stroke-linecap="round" stroke-linejoin="round">
        <path d="M5 20V10" />
        <path d="M12 20V4" />
        <path d="M19 20v-7" />
    </symbol>
    <symbol id="icon-sliders" viewBox="0 0 24 24" fill="none" stroke="currentColor" stroke-width="1.6" stroke-linecap="round" stroke-linejoin="round">
        <path d="M4 6h16" />
        <path d="M4 12h16" />
        <path d="M4 18h16" />
        <circle cx="9" cy="6" r="2" />
        <circle cx="15" cy="12" r="2" />
        <circle cx="11" cy="18" r="2" />
    </symbol>
    <symbol id="icon-magic" viewBox="0 0 24 24" fill="none" stroke="currentColor" stroke-width="1.6" stroke-linecap="round" stroke-linejoin="round">
        <path d="M10.5 3l.75 2.5L14 6.25l-2.75 1.25L10.5 10 9.25 7.5 6.5 6.25l2.75-.75z" />
        <path d="M17.5 9.5l.5 1.5 1.5.5-1.5.5-.5 1.5-.5-1.5-1.5-.5 1.5-.5z" />
        <path d="M4 20l8-8" />
        <path d="M14 10l6 6" />
    </symbol>
    <symbol id="icon-puzzle" viewBox="0 0 24 24" fill="none" stroke="currentColor" stroke-width="1.6" stroke-linecap="round" stroke-linejoin="round">
        <path d="M9 3H5a2 2 0 00-2 2v4h1.5a2.5 2.5 0 110 5H3v4a2 2 0 002 2h4v-1.5a2.5 2.5 0 115 0V20h4a2 2 0 002-2v-4h-1.5a2.5 2.5 0 110-5H19V5a2 2 0 00-2-2h-4v1.5a2.5 2.5 0 11-5 0z" />
    </symbol>
</svg>
